Coordinates
version=1
nRows=17
nColumns=24
inDegrees=yes

Units are S.I. units (second, meters, Newtons, ...)
Angles are in degrees.

endheader
time	pelvis_tilt	pelvis_list	pelvis_rotation	pelvis_tx	pelvis_ty	pelvis_tz	hip_flexion_r	hip_adduction_r	hip_rotation_r	knee_angle_r	ankle_angle_r	subtalar_angle_r	mtp_angle_r	hip_flexion_l	hip_adduction_l	hip_rotation_l	knee_angle_l	ankle_angle_l	subtalar_angle_l	mtp_angle_l	lumbar_extension	lumbar_bending	lumbar_rotation
      2.34500000	     25.54340779	     -0.23663856	      3.81424090	      0.50839055	      0.84760599	      0.00107020	    -36.19680853	      2.61109505	    -20.67137535	    -34.97389171	     25.87839729	     14.10334989	     51.49722674	     -8.25478298	      1.11511084	     -9.46035936	    -15.16841392	     11.20955200	      3.35366608	     48.75169735	    -37.97909087	     -0.04616801	    -11.18084436
      2.35000000	     25.40118425	      0.03035035	      3.79588611	      0.51416009	      0.84795273	      0.00062238	    -35.22807743	      1.92146467	    -20.97240880	    -37.57393018	     24.55642257	     13.35722715	     53.37795931	     -8.35096129	      1.43035823	     -9.13570863	    -15.64090571	     11.48337559	      3.11814065	     48.18773269	    -37.83067123	     -0.37855157	    -11.36150414
      2.35500000	     25.24309122	      0.30491483	      3.76742497	      0.51991795	      0.84829017	      0.00017035	    -34.22124257	      1.20994205	    -21.22790481	    -40.13424004	     23.14745981	     12.51569931	     55.10361773	     -8.46949240	      1.76366572	     -8.84533941	    -16.02813170	     11.78264069	      2.91878823	     47.65993990	    -37.66650372	     -0.71966002	    -11.53039840
      2.36000000	     25.05467569	      0.54748299	      3.72415748	      0.52564815	      0.84858868	     -0.00023955	    -33.16245793	      0.53226048	    -21.36625612	    -42.62818842	     21.78792442	     11.63555230	     55.47072725	     -8.57861654	      2.06627916	     -8.60619520	    -16.35569021	     12.13015915	      2.75847588	     47.53011408	    -37.47145654	     -1.03876639	    -11.65846355
      2.36500000	     24.92812458	      0.86037391	      3.71506476	      0.53143491	      0.84898674	     -0.00077277	    -32.21163379	     -0.20413243	    -21.61269502	    -44.94575443	     20.30221898	     10.62487052	     57.50538381	     -8.83040981	      2.45340062	     -8.32063111	    -16.52961812	     12.40552727	      2.60262165	     46.83071838	    -37.33743828	     -1.39029021	    -11.86675421
      2.37000000	     24.78459353	      1.10620435	      3.65765545	      0.53715453	      0.84936434	     -0.00115094	    -31.20704763	     -0.86853037	    -21.66666153	    -47.19613261	     19.02439290	      9.59365482	     57.54344816	     -9.06952390	      2.75626913	     -8.19664659	    -16.67832983	     12.73136847	      2.62138203	     46.75429856	    -37.18896802	     -1.71179418	    -11.95878708
      2.37500000	     24.64058650	      1.32651186	      3.65342439	      0.54286528	      0.84977124	     -0.00159728	    -30.22455583	     -1.46029883	    -21.71744172	    -49.25133012	     17.77203084	      8.51656776	     57.70247568	     -9.31766145	      3.02639452	     -8.03613587	    -16.80333401	     13.07751889	      2.55728140	     46.54450198	    -37.03728125	     -1.97664802	    -12.12202334
      2.38000000	     24.52514332	      1.54887057	      3.63054955	      0.54857974	      0.85021828	     -0.00202120	    -29.28272343	     -2.04396876	    -21.72514862	    -51.16359892	     16.77426072	      7.43518149	     57.68760850	     -9.65303543	      3.29831321	     -7.92187357	    -16.79967321	     13.43466224	      2.63610984	     46.37996217	    -36.91475394	     -2.24669052	    -12.25985126
      2.38500000	     24.42690276	      1.72458797	      3.63420177	      0.55422209	      0.85070604	     -0.00245741	    -28.36272717	     -2.54142893	    -21.70103014	    -52.90867671	     15.94446908	      6.32625045	     57.50573053	     -9.99596368	      3.50474714	     -7.84235957	    -16.81027037	     13.79798552	      2.77064441	     46.18851752	    -36.81527670	     -2.45305577	    -12.38026260
      2.39000000	     24.34259488	      1.87469303	      3.64360648	      0.55981798	      0.85122821	     -0.00288115	    -27.46256300	     -2.98662767	    -21.65148884	    -54.50018599	     15.37566032	      5.23257494	     57.16726363	    -10.36528167	      3.67373961	     -7.79118100	    -16.78578073	     14.13723178	      2.99019733	     46.02462376	    -36.73342205	     -2.62827610	    -12.47485772
      2.39500000	     24.28451148	      1.94290764	      3.69738465	      0.56539369	      0.85180605	     -0.00326327	    -26.60693426	     -3.27914140	    -21.55565633	    -55.89518010	     15.06488710	      4.27348446	     55.13099543	    -10.73269330	      3.71268783	     -7.84140001	    -16.84327756	     14.72393782	      3.62855439	     44.91900398	    -36.67684323	     -2.70492110	    -12.62011145
      2.40000000	     24.20191120	      1.99368141	      3.70899777	      0.57085086	      0.85237246	     -0.00366776	    -25.69771328	     -3.56752246	    -21.40587518	    -57.17728939	     14.99042485	      3.22596276	     54.66861019	    -11.10606584	      3.77239810	     -7.82867090	    -16.77622982	     15.05298070	      3.73279860	     44.76680083	    -36.60128713	     -2.77346819	    -12.64884929
      2.40500000	     24.16966359	      2.01624703	      3.73446702	      0.57629856	      0.85299525	     -0.00401099	    -24.86156846	     -3.78629157	    -21.25384185	    -58.30807189	     15.32436274	      2.50960551	     51.86203354	    -11.50832383	      3.76409447	     -7.94453902	    -16.79141930	     15.58131092	      4.27503728	     43.74687354	    -36.57975134	     -2.80844102	    -12.72218237
      2.41000000	     24.14096292	      1.96126698	      3.81686410	      0.58162419	      0.85364910	     -0.00440460	    -24.02968714	     -3.87043820	    -21.11743415	    -59.22892396	     15.61244269	      1.49480926	     51.15184010	    -11.88362365	      3.65985302	     -7.99420041	    -16.83446762	     16.05743923	      4.66676633	     43.58846369	    -36.57170408	     -2.73318058	    -12.77783250
      2.41500000	     24.12889590	      1.91397162	      3.86815119	      0.58698170	      0.85434104	     -0.00473258	    -23.22569503	     -3.96126941	    -20.97146674	    -60.03059055	     16.25905319	      0.86860464	     48.71239926	    -12.31651813	      3.55788362	     -8.11633572	    -16.79285353	     16.51127186	      5.34733386	     42.90727507	    -36.57556046	     -2.68037667	    -12.83023582
      2.42000000	     24.09057947	      1.85432382	      3.91129435	      0.59216214	      0.85497515	     -0.00509108	    -22.36451026	     -4.03812030	    -20.81788629	    -60.71868117	     16.91719015	      0.07001839	     48.43082439	    -12.68654237	      3.47014170	     -8.15555252	    -16.78393654	     16.82451005	      5.47937624	     42.86366265	    -36.57307080	     -2.61083517	    -12.86125722
      2.42500000	     24.09387964	      1.68878512	      3.96468018	      0.59740462	      0.85568477	     -0.00534674	    -21.56723346	     -3.95194540	    -20.62369306	    -61.21450983	     17.82033607	     -0.42219121	     45.43204512	    -13.09563904	      3.22486177	     -8.35171792	    -16.80771206	     17.42414031	      6.27024621	     42.05643528	    -36.59603734	     -2.43703737	    -12.82425183
